<?xml version="1.0" encoding="utf-8"?>
<!-- Generator: Adobe Illustrator 16.0.4, SVG Export Plug-In . SVG Version: 6.00 Build 0)  -->
<!DOCTYPE svg PUBLIC "-//W3C//DTD SVG 1.1//EN" "http://www.w3.org/Graphics/SVG/1.1/DTD/svg11.dtd">
<svg version="1.1" id="Layer_1" xmlns="http://www.w3.org/2000/svg" xmlns:xlink="http://www.w3.org/1999/xlink" x="0px" y="0px"
	 width="1024px" height="1024px" viewBox="0 0 1024 1024" enable-background="new 0 0 1024 1024" xml:space="preserve">
<g>
	<path fill-rule="evenodd" clip-rule="evenodd" d="M501.254,371.317c-6.759,19.446-13.571,38.873-20.266,58.341
		c-33.265,96.74-66.48,193.497-99.749,290.234c-20.481,59.556-40.926,119.124-61.6,178.613
		c-7.299,21.002-4.878,17.261-24.206,17.326c-55.659,0.191-111.319,0.068-166.979,0.065c-2.666,0-5.334-0.092-7.998-0.032
		c-4.847,0.108-7.549-1.894-7.468-7.048c0.27-16.99,0.403-33.982,0.76-50.97c0.119-5.646,0.987-11.274,1.116-16.92
		c0.854-37.627,1.446-75.26,2.422-112.884c1.139-43.938,2.586-87.866,3.891-131.799c1.344-45.271,2.672-90.541,4.019-135.811
		c1.316-44.274,2.64-88.549,3.977-132.822c1.316-43.609,2.626-87.22,3.998-130.828c0.482-15.31,1.306-30.61,1.638-45.922
		c0.13-5.963,1.66-9.257,8.497-9.237c56.326,0.165,112.652,0.104,168.979,0.157c1.589,0.002,3.178,0.524,6.372,1.087
		c-15.94,182.113-31.854,363.918-47.767,545.723c0.575,0.238,1.15,0.478,1.726,0.716c1.005-2.035,2.229-3.993,2.981-6.117
		c27.123-76.644,54.2-153.304,81.289-229.959c35.414-100.213,70.821-200.429,106.265-300.631
		c3.852-10.889,3.953-10.899,15.713-10.904c48.662-0.021,97.323-0.024,145.983,0.003c12.398,0.007,12.749,0.089,12.117,12.104
		c-2.307,43.882-4.883,87.749-7.326,131.624c-0.797,14.295-1.567,28.591-2.23,42.893c-1.541,33.261-2.795,66.537-4.56,99.786
		c-2.274,42.876-4.95,85.731-7.418,128.597c-0.707,12.294-1.31,24.596-1.93,36.895c-1.49,29.589-2.979,59.178-4.412,88.77
		c-0.106,2.202,0.24,4.427,2.141,7.112c1.276-3.573,2.642-7.118,3.816-10.724c55.21-169.499,110.402-339.003,165.604-508.505
		c2.373-7.285,4.917-14.518,7.172-21.839c1.328-4.314,3.557-6.749,8.472-6.737c55.324,0.127,110.649,0.133,165.974,0.225
		c0.905,0.002,1.809,0.68,3.919,1.524c-2.757,7.471-5.412,14.894-8.226,22.257c-65.523,171.498-131.07,342.988-196.601,514.483
		c-28.306,74.076-56.573,148.166-84.893,222.236c-5.168,13.518-5.244,13.498-20.122,13.499
		c-57.327,0.004-114.653,0.011-171.979-0.006c-13.477-0.004-13.953-0.07-13.257-13.146c1.573-29.563,3.669-59.101,5.54-88.648
		c0.757-11.957,1.542-23.911,2.209-35.873c2.149-38.545,4.13-77.099,6.4-115.637c2.505-42.524,5.257-85.035,7.9-127.552
		c2.664-42.854,5.309-85.711,8.005-128.564c0.729-11.587,1.613-23.165,2.427-34.748C502.81,371.587,502.031,371.453,501.254,371.317
		z"/>
</g>
</svg>
